<?xml version="1.0" encoding="UTF-8" standalone="no"?>
<!DOCTYPE svg PUBLIC "-//W3C//DTD SVG 1.1//EN" "http://www.w3.org/Graphics/SVG/1.1/DTD/svg11.dtd">
<svg width="100%" height="100%" viewBox="0 0 1672 1672" version="1.1" xmlns="http://www.w3.org/2000/svg" xmlns:xlink="http://www.w3.org/1999/xlink" xml:space="preserve" xmlns:serif="http://www.serif.com/" style="fill-rule:evenodd;clip-rule:evenodd;stroke-linejoin:round;stroke-miterlimit:2;">
    <g transform="matrix(2.31129,2.31129,-2.31129,2.31129,889.709,-44.2725)">
        <path d="M0,80C0,53.5 21.5,32 48,32L197.4,32.1C214.4,32.1 230.7,38.8 242.7,50.8L418.7,226.8C443.7,251.8 443.7,292.3 418.7,317.3L285.2,450.8C260.2,475.8 219.7,475.8 194.7,450.8L18.7,274.8C6.7,262.8 0,246.5 0,229.5L0,80ZM241.014,173.276L212.003,144.265C208.63,140.893 204.018,141.528 201.501,145.362L171.728,191.245C169.053,195.478 169.242,199.446 172.546,202.75L261.62,290.839C266.75,295.896 267.583,302.102 263.844,307.704L253.555,323.501C241.785,341.488 241.738,355.951 253.183,367.396C264.438,378.651 280.655,377.895 292.969,365.58C304.476,354.074 312.819,329.862 290.412,307.455L217.961,235.003C212.64,229.683 212.254,226.434 216.205,220.212L241.679,180.322C243.214,177.91 242.995,175.257 241.014,173.276ZM112,112C94.445,112 80,126.445 80,144C80,161.555 94.445,176 112,176C129.555,176 144,161.555 144,144C144,126.445 129.555,112 112,112Z"/>
    </g>
</svg>
