<?xml version="1.0" encoding="UTF-8" standalone="no"?>
<!DOCTYPE svg PUBLIC "-//W3C//DTD SVG 1.1//EN" "http://www.w3.org/Graphics/SVG/1.1/DTD/svg11.dtd">
<svg width="100%" height="100%" viewBox="0 0 1672 1672" version="1.1" xmlns="http://www.w3.org/2000/svg" xmlns:xlink="http://www.w3.org/1999/xlink" xml:space="preserve" xmlns:serif="http://www.serif.com/" style="fill-rule:evenodd;clip-rule:evenodd;stroke-linejoin:round;stroke-miterlimit:2;">
    <g transform="matrix(2.31129,2.31129,-2.31129,2.31129,889.709,-44.2725)">
        <path d="M0,80L0,229.5C0,246.5 6.7,262.8 18.7,274.8L194.7,450.8C219.7,475.8 260.2,475.8 285.2,450.8L418.7,317.3C443.7,292.3 443.7,251.8 418.7,226.8L242.7,50.8C230.7,38.8 214.4,32.1 197.4,32.1L48,32C21.5,32 0,53.5 0,80ZM112,112C129.555,112 144,126.445 144,144C144,161.555 129.555,176 112,176C94.445,176 80,161.555 80,144C80,126.445 94.445,112 112,112Z" style="fill-rule:nonzero;"/>
    </g>
</svg>
